<svg width="1519" height="301" viewBox="0 0 1516 301" fill="none" xmlns="http://www.w3.org/2000/svg">
<path fill-rule="evenodd" clip-rule="evenodd" d="M0 0L63.1667 15.3133C126.333 30.6265 252.667 61.253 379 73.1633C505.333 85.6408 631.667 79.4021 758 61.253C884.333 42.5368 1010.67 11.9103 1137 9.07452C1263.33 6.23873 1389.67 30.6265 1452.83 42.5368L1516 55.0143V146.894H1452.83C1389.67 146.894 1263.33 146.894 1137 146.894C1010.67 146.894 884.333 146.894 758 146.894C631.667 146.894 505.333 146.894 379 146.894C252.667 146.894 126.333 146.894 63.1667 146.894H0V0Z" fill="#F8670E"/>
<path fill-rule="evenodd" clip-rule="evenodd" d="M0 50.2041L63.1667 61.8344C126.333 73.4647 252.667 96.7254 379 105.771C505.333 115.248 631.667 110.509 758 96.7254C884.333 82.5105 1010.67 59.2499 1137 57.0961C1263.33 54.9424 1389.67 73.4647 1452.83 82.5105L1516 91.9871V161.769H1452.83C1389.67 161.769 1263.33 161.769 1137 161.769C1010.67 161.769 884.333 161.769 758 161.769C631.667 161.769 505.333 161.769 379 161.769C252.667 161.769 126.333 161.769 63.1667 161.769H0V50.2041Z" fill="#A512BD"/>
<path fill-rule="evenodd" clip-rule="evenodd" d="M0 75.3782L63.1667 98.8986C126.333 122.419 276.813 111.695 403.147 129.989C529.48 149.154 571.825 157.865 698.158 129.989C824.491 101.242 1010.67 93.6718 1137 89.3162C1263.33 84.9606 1389.67 122.419 1452.83 140.713L1516 159.877V301H1452.83C1389.67 301 1263.33 301 1137 301C1010.67 301 884.333 301 758 301C631.667 301 505.333 301 379 301C252.667 301 126.333 301 63.1667 301H0V75.3782Z" fill="#A512BD"/>
</svg>
